<?xml version="1.0" encoding="UTF-8"?>
<svg id="Layer_1" data-name="Layer 1" xmlns="http://www.w3.org/2000/svg" viewBox="0 0 2000 2000">
  <defs>
    <style>
      .cls-1 {
        fill: #e2e3dd;
      }

      .cls-2 {
        fill: #7ddc77;
      }
    </style>
  </defs>
  <path class="cls-2" d="m1469.7,1095.6l204.97-95.7-204.97-95.7c-105.39-49.21-228.17-43.87-328.9,14.28,100.73-58.15,166.74-161.82,176.82-277.69l19.6-225.37-185.36,129.67c-95.31,66.66-152.09,175.66-152.09,291.97,0-116.31-56.77-225.31-152.08-291.97l-185.37-129.67,19.61,225.37c10.08,115.87,76.09,219.53,176.82,277.69-100.73-58.15-223.51-63.49-328.9-14.28l-204.97,95.7,204.97,95.7c105.39,49.21,228.17,43.88,328.9-14.28-100.73,58.16-166.74,161.82-176.82,277.7l-19.61,225.36,185.37-129.66c95.31-66.67,152.08-175.66,152.08-291.97,0,116.31,56.78,225.3,152.09,291.97l185.36,129.66-19.6-225.36c-10.09-115.88-76.09-219.54-176.82-277.7,100.73,58.16,223.51,63.49,328.9,14.28Zm-359.23-67.3c-13.2.75-23.87,8.16-29.75,18.34-5.87,10.18-6.96,23.12-1.01,34.93,28.71,56.98,53.76,116.25,69.46,177.1-44.79-43.96-83.55-95.21-118.5-148.5-14.51-22.12-47.01-22.12-61.52,0-35.01,53.4-73.93,104.62-118.77,148.5,15.55-60.7,40.41-119.94,69.1-176.89,11.9-23.63-4.35-51.77-30.76-53.27-63.67-3.63-127.39-11.73-187.74-28.61,60.35-16.87,124.07-24.97,187.74-28.6,26.41-1.5,42.66-29.65,30.76-53.27-28.69-56.95-53.55-116.19-69.1-176.89,44.84,43.88,83.76,95.09,118.77,148.49,7.23,11.02,18.92,16.54,30.62,16.59,11.8.04,23.61-5.48,30.9-16.59,34.95-53.28,73.71-104.53,118.5-148.49-15.69,60.84-40.74,120.11-69.46,177.09-11.9,23.63,4.35,51.78,30.76,53.28,63.71,3.62,127.55,11.57,188.1,28.39-60.54,16.83-124.39,24.77-188.1,28.4Z"/>
  <path class="cls-1" d="m1034.19,1059.51c-32.92,19.01-75.02,7.73-94.02-25.19-19.01-32.92-7.73-75.02,25.19-94.02,32.92-19.01,75.01-7.73,94.02,25.19,19.01,32.92,7.73,75.01-25.19,94.02Z"/>
</svg>