<?xml version="1.0" encoding="UTF-8"?><svg id="Layer_1" xmlns="http://www.w3.org/2000/svg" viewBox="0 0 1001 1001"><path d="m500.5,71.31c-237.03,0-429.19,192.16-429.19,429.19s192.16,429.19,429.19,429.19,429.19-192.16,429.19-429.19S737.53,71.31,500.5,71.31ZM240.66,370.76c-4.08-2.87-7.28-7.04-8.92-12.14-4.05-12.52,2.81-25.97,15.35-30.02,123.35-39.91,208.85,18.96,212.43,21.48,10.73,7.56,13.28,22.32,5.77,33.1-7.51,10.75-22.34,13.4-33.14,5.96-2.84-1.96-70.56-47.47-170.39-15.17-7.42,2.41-15.17.98-21.1-3.21Zm116.78,28.4c32.93,0,59.61,29.38,59.61,65.57s-26.68,65.57-59.61,65.57-59.61-29.35-59.61-65.57,26.68-65.57,59.61-65.57Zm309.97,292.09h-333.82c-13.16,0-23.84-10.66-23.84-23.84s10.68-23.85,23.84-23.85h333.82c13.18,0,23.84,10.66,23.84,23.85s-10.66,23.84-23.84,23.84Zm-23.85-143.06c-32.93,0-59.61-37.34-59.61-83.46s26.68-83.45,59.61-83.45,59.61,37.36,59.61,83.45-26.68,83.46-59.61,83.46Zm161.64-235.19c-5.48,4.36-12.06,6.48-18.55,6.48-8.77,0-17.43-3.84-23.34-11.23-33.24-41.75-102.48-78.37-126.71-78.37-15.31,0-45.9,21.69-62.09,37.38-11.83,11.5-30.71,11.12-42.13-.66-11.47-11.81-11.18-30.62.57-42.09,9.32-9.06,58.09-54.24,103.65-54.24,47.81,0,132.05,49,173.35,100.83,10.25,12.88,8.1,31.62-4.75,41.9Z" fill="#ffcc4d"/></svg>